<?xml version="1.0" encoding="UTF-8"?><svg xmlns="http://www.w3.org/2000/svg" xmlns:xlink="http://www.w3.org/1999/xlink" viewBox="0 0 1920 1080"><defs><style>.ad{fill:#d6bde2;}.ae{fill:url(#r);}.af{fill:url(#y);}.ag{filter:url(#c);}.ag,.ah,.ai{mix-blend-mode:color-dodge;}.ah{filter:url(#t);}.aj{isolation:isolate;}.ak{fill:url(#v);}.al{fill:url(#a`);}.am{clip-path:url(#aa);}.an{fill:url(#f);}.ao{fill:url(#p);}.ap{fill:url(#g);}.aq{fill:url(#b);}.ar{fill:url(#i);}.as{fill:url(#h);}.at{fill:url(#e);}.au{fill:none;}.av{fill:url(#x);}.ai{filter:url(#l);}.aw{fill:url(#n);}.ax{fill:url(#w);}.ay{fill:url(#j);}.b`{fill:url(#o);}.ba{clip-path:url(#s);}.bb{fill:url(#q);}.bc{fill:url(#ab);mix-blend-mode:overlay;}.bd{clip-path:url(#k);}</style><linearGradient id="b" x1="0" y1="540" x2="1920" y2="540" gradientTransform="matrix(1, 0, 0, 1, 0, 0)" gradientUnits="userSpaceOnUse"><stop offset="0" stop-color="#150006"/><stop offset="1" stop-color="#151421"/></linearGradient><filter id="c" filterUnits="userSpaceOnUse"><feOffset dx="0" dy="0"/><feGaussianBlur result="d" stdDeviation="8.46"/><feFlood flood-color="#96c" flood-opacity=".75"/><feComposite in2="d" operator="in"/><feComposite in="SourceGraphic"/></filter><linearGradient id="e" x1="815.31" y1="354.6" x2="815.31" y2="756.65" gradientTransform="matrix(1, 0, 0, 1, 0, 0)" gradientUnits="userSpaceOnUse"><stop offset="0" stop-color="#8957a1"/><stop offset="1" stop-color="#351c41"/></linearGradient><linearGradient id="f" x1="817.21" y1="299.12" x2="817.21" y2="411.81" xlink:href="#e"/><linearGradient id="g" x1="926.49" y1="818.23" x2="926.49" y2="751.33" xlink:href="#e"/><linearGradient id="h" x1="1127.21" y1="354.79" x2="1127.21" y2="756.66" gradientTransform="matrix(1, 0, 0, 1, 0, 0)" gradientUnits="userSpaceOnUse"><stop offset="0" stop-color="#8957a1"/><stop offset="1" stop-color="#351c41"/></linearGradient><linearGradient id="i" x1="1016.74" y1="820.21" x2="1016.74" y2="751.88" xlink:href="#e"/><linearGradient id="j" x1="1126.33" y1="301.11" x2="1126.33" y2="414.56" xlink:href="#h"/><clipPath id="k"><circle class="au" cx="972.93" cy="544.78" r="136.66"/></clipPath><filter id="l" filterUnits="userSpaceOnUse"><feOffset dx="0" dy="0"/><feGaussianBlur result="m" stdDeviation="8.46"/><feFlood flood-color="#96c" flood-opacity=".75"/><feComposite in2="m" operator="in"/><feComposite in="SourceGraphic"/></filter><linearGradient id="n" x1="817.21" y1="299.12" x2="817.21" y2="411.81" xlink:href="#e"/><linearGradient id="o" x1="926.49" y1="818.23" x2="926.49" y2="751.33" xlink:href="#e"/><linearGradient id="p" x1="1127.21" y1="354.79" x2="1127.21" y2="756.66" xlink:href="#e"/><linearGradient id="q" x1="1016.74" y1="820.21" x2="1016.74" y2="751.88" xlink:href="#e"/><linearGradient id="r" x1="1126.33" y1="301.11" x2="1126.33" y2="414.56" xlink:href="#e"/><clipPath id="s"><circle class="au" cx="972.93" cy="544.78" r="136.66"/></clipPath><filter id="t" filterUnits="userSpaceOnUse"><feOffset dx="0" dy="0"/><feGaussianBlur result="u" stdDeviation="8.46"/><feFlood flood-color="#96c" flood-opacity=".75"/><feComposite in2="u" operator="in"/><feComposite in="SourceGraphic"/></filter><linearGradient id="v" x1="817.21" y1="299.12" x2="817.21" y2="411.81" xlink:href="#e"/><linearGradient id="w" x1="926.49" y1="818.23" x2="926.49" y2="751.33" xlink:href="#e"/><linearGradient id="x" x1="1127.21" y1="354.79" x2="1127.21" y2="756.66" xlink:href="#e"/><linearGradient id="y" x1="1016.74" y1="820.21" x2="1016.74" y2="751.88" xlink:href="#e"/><linearGradient id="a`" x1="1126.33" y1="301.11" x2="1126.33" y2="414.56" xlink:href="#e"/><clipPath id="aa"><circle class="au" cx="972.93" cy="544.78" r="136.66"/></clipPath><radialGradient id="ab" cx="828.97" cy="425.06" fx="828.97" fy="425.06" r="258.73" gradientTransform="matrix(1, 0, 0, 1, 0, 0)" gradientUnits="userSpaceOnUse"><stop offset="0" stop-color="#fff"/><stop offset="1" stop-color="#fff" stop-opacity="0"/></radialGradient><image id="ac" transform="translate(833.23 408.12) scale(2.82)" xlink:href="../../../../../../../ClipStudioPaint/care pass 1/careAnimationBIG_0000.png"/></defs><g class="aj"><g id="a"><rect class="aq" width="1920" height="1080"/><g><g class="ag"><g><path class="at" d="M835.38,495.73c-6.94,16.31-10.78,34.26-10.78,53.09s3.89,37.04,10.93,53.45c1.96,4.59,4.18,9.05,6.63,13.37,23.25,41.05,67.27,68.78,117.78,68.91v72.1c-3.18-.05-6.36-.14-9.54-.24-19.12-.88-38.29-2.57-57.36-5.08l-20.19-20.17-4.59-4.6-95.56-95.55-11.54-11.54-42.91-42.91c-26.12-26.12-41.5-58.95-46.09-92.94-.29-2.01-.52-4.03-.73-6.04-2.15-22.06,.19-44.5,7.02-65.78,13.28-6.09,27.05-11.25,40.69-16.19,76.05-26.14,156.34-39.83,236.79-41.01l3.99,3.98v54.53c-54.9,.15-102.13,32.89-123.38,79.89-.39,.9-.8,1.81-1.18,2.72Z"/><path class="an" d="M955.95,354.6c-80.45,1.18-160.74,14.87-236.79,41.01-13.64,4.94-27.41,10.1-40.69,16.19,1.12-3.47,2.33-6.89,3.69-10.29,7.94-19.95,19.97-38.64,36.11-54.79,31.72-31.72,73.33-47.61,114.92-47.61s80.4,14.84,111.69,44.5c1.08,1.02,2.15,2.06,3.21,3.11l7.87,7.87Z"/><path class="ap" d="M959.94,756.65v61.59l-66.9-66.9c19.07,2.5,38.24,4.2,57.36,5.08,3.18,.1,6.36,.19,9.54,.24Z"/><path class="as" d="M1271.86,463.63c0,20.76-3.94,41.5-11.84,61.03-2.39,5.9-5.14,11.71-8.26,17.34-7.22,13.11-16.38,25.43-27.49,36.55l-11.86,11.84-107.49,107.47-54.01,54.01c-22.67,2.88-45.53,4.43-68.34,4.79v-70.18h.3c68.07,0,124.44-50.13,134.21-115.48h.02c.73-4.92,1.2-9.95,1.39-15.02,.07-1.73,.1-3.49,.1-5.23,0-74.95-60.76-135.71-135.71-135.71h-.3v-54.48l5.77-5.77h.02c91.72,2.44,182.99,21.13,267.77,56.09,2.74,1.2,5.48,2.42,8.19,3.69,5.04,15.94,7.55,32.5,7.55,49.07Z"/><path class="ar" d="M1050.9,751.88l-68.34,68.34v-63.55c22.81-.36,45.67-1.91,68.34-4.79Z"/><path class="ay" d="M1264.31,414.56c-2.71-1.27-5.45-2.49-8.19-3.69-84.78-34.96-176.05-53.65-267.77-56.09l6.07-6.07c1.76-1.76,3.55-3.49,5.38-5.14,63.77-58.27,162.73-56.56,224.46,5.14,14.35,14.35,25.43,30.69,33.28,48.14,2.62,5.79,4.87,11.71,6.77,17.72Z"/><path class="ad" d="M982.57,702.49v7.82c-7.55,.83-15.09,1.76-22.62,2.78v-7.56c7.53-1.12,15.08-2.13,22.62-3.03Z"/><path class="ad" d="M1176.74,719.02c.05,9.85-13.25,15.13-20.47,18.66-21.67,9.26-44.58,14.65-67.48,19.32-16.85,3.33-33.84,5.97-50.91,7.9-18.37,2.08-36.83,3.35-55.31,3.77-7.53,.17-15.08,.2-22.62,.12-17.5-.24-34.99-1.22-52.42-2.98-16.77-1.66-33.47-4.03-50.03-7.11-7.02-1.29-15.41-2.91-24.69-4.92-6.46,6.8-10.3,14.8-10.17,24.23,.58,17.87,12,33.57,23.28,46.68,36.38,39.58,84.51,66.36,132.74,88.98-49.05-21.56-98.05-47.36-135.41-86.58-29.74-32.77-30.83-56.8-16.18-74.57-50.44-11.3-122.01-32.76-141.69-65.82-11.08-19.75,3.96-36.65,20.86-45.92,17.34-9.58,35.97-16.02,54.92-21.32l11.54,11.54c-32.1,8.51-63.57,19.91-74.55,34.57-11.47,16.41,19.53,33.72,31.86,40.34,13.18,6.89,27.26,12.49,41.54,17.46,21.93,7.39,44.36,13.55,67.09,18.49,8.16-5.94,18.29-10.98,29.63-15.31l4.59,4.6c-9.81,3.37-19.09,7.39-26.92,12.25,15.58,3.21,31.32,5.85,47.1,7.92,19.07,2.5,38.24,4.2,57.36,5.08,3.18,.1,6.36,.19,9.54,.24,7.53,.14,15.08,.15,22.62,.02,22.81-.36,45.67-1.91,68.34-4.79,27.07-3.43,53.89-8.76,80.06-16.21,11.91-3.89,24.7-7.39,34.5-15.14,.34-.32,.66-.66,.86-.93-.2-.17-.47-.41-.81-.63-10.93-6.07-24.2-7.33-36.56-9.31-10.88-1.4-21.86-2.34-32.89-2.94l8.85-8.85c16.26,.96,32.45,2.84,48.48,6.12,8.05,2.2,22.23,4.91,23.35,15.02Z"/><path class="ad" d="M1118.48,555.98c-.19,5.08-.66,10.1-1.39,15.02h-.02c-91.04,16.01-183.11,26.95-273.68,44.38-.41,.08-.81,.17-1.24,.25-2.45-4.31-4.67-8.78-6.63-13.37,93.75-18.63,188.91-29.73,282.95-46.29Z"/><path class="ad" d="M861.08,493.83c30.71,.95,61.44,1.44,92.16,1.68-39.29,.64-78.58,.91-117.86,.22,.39-.91,.8-1.83,1.18-2.72,8.17,.3,16.34,.58,24.52,.83Z"/><path class="ad" d="M1318.07,516.42c-20.71,11.64-43.45,18.93-65.95,25.48l-.36,.1c3.11-5.63,5.87-11.44,8.26-17.34,10.57-3.23,20.98-6.82,31.06-10.95,13.15-5.57,26.94-12.11,36.85-22.01,10.22-10.07,9.81-21.22,1.35-32.49-8.53-11.3-20.83-20.2-33.03-27.77-10.19-6.28-20.93-11.83-31.94-16.89-2.71-1.27-5.45-2.49-8.19-3.69-84.78-34.96-176.05-53.65-267.77-56.09h-.02c-10.79-.29-21.59-.36-32.38-.19-80.45,1.18-160.74,14.87-236.79,41.01-13.64,4.94-27.41,10.1-40.69,16.19-14.3,6.55-28.05,14.16-40.49,23.74-5.79,4.94-14.18,12.03-12.93,20.08,1.27,4.77,5.53,7.5,9.85,10.12,11.2,5.94,23.96,9.19,36.55,11.84,.2,2.01,.44,4.03,.73,6.04-13.86-2.62-27.58-5.7-40.39-12.22-41-23.35,20.51-55.63,41.64-65.85,2.89-1.37,5.8-2.72,8.73-4.04,39.42-17.77,81.15-30.02,123.23-39.61,45.84-10.56,92.58-16.6,139.49-18.29,18.31-.68,36.63-.69,54.94-.05,58.44,2.03,116.71,10.66,173.36,25.46,28.53,7.58,57.04,16.31,84.38,27.82,15.75,6.62,31.12,14.16,45.85,22.93,43.45,25.75,71.03,64.67,14.67,96.65Z"/></g><g class="bd"><use xlink:href="#ac"/></g></g><g class="ai"><g><path class="at" d="M835.38,495.73c-6.94,16.31-10.78,34.26-10.78,53.09s3.89,37.04,10.93,53.45c1.96,4.59,4.18,9.05,6.63,13.37,23.25,41.05,67.27,68.78,117.78,68.91v72.1c-3.18-.05-6.36-.14-9.54-.24-19.12-.88-38.29-2.57-57.36-5.08l-20.19-20.17-4.59-4.6-95.56-95.55-11.54-11.54-42.91-42.91c-26.12-26.12-41.5-58.95-46.09-92.94-.29-2.01-.52-4.03-.73-6.04-2.15-22.06,.19-44.5,7.02-65.78,13.28-6.09,27.05-11.25,40.69-16.19,76.05-26.14,156.34-39.83,236.79-41.01l3.99,3.98v54.53c-54.9,.15-102.13,32.89-123.38,79.89-.39,.9-.8,1.81-1.18,2.72Z"/><path class="aw" d="M955.95,354.6c-80.45,1.18-160.74,14.87-236.79,41.01-13.64,4.94-27.41,10.1-40.69,16.19,1.12-3.47,2.33-6.89,3.69-10.29,7.94-19.95,19.97-38.64,36.11-54.79,31.72-31.72,73.33-47.61,114.92-47.61s80.4,14.84,111.69,44.5c1.08,1.02,2.15,2.06,3.21,3.11l7.87,7.87Z"/><path class="b`" d="M959.94,756.65v61.59l-66.9-66.9c19.07,2.5,38.24,4.2,57.36,5.08,3.18,.1,6.36,.19,9.54,.24Z"/><path class="ao" d="M1271.86,463.63c0,20.76-3.94,41.5-11.84,61.03-2.39,5.9-5.14,11.71-8.26,17.34-7.22,13.11-16.38,25.43-27.49,36.55l-11.86,11.84-107.49,107.47-54.01,54.01c-22.67,2.88-45.53,4.43-68.34,4.79v-70.18h.3c68.07,0,124.44-50.13,134.21-115.48h.02c.73-4.92,1.2-9.95,1.39-15.02,.07-1.73,.1-3.49,.1-5.23,0-74.95-60.76-135.71-135.71-135.71h-.3v-54.48l5.77-5.77h.02c91.72,2.44,182.99,21.13,267.77,56.09,2.74,1.2,5.48,2.42,8.19,3.69,5.04,15.94,7.55,32.5,7.55,49.07Z"/><path class="bb" d="M1050.9,751.88l-68.34,68.34v-63.55c22.81-.36,45.67-1.91,68.34-4.79Z"/><path class="ae" d="M1264.31,414.56c-2.71-1.27-5.45-2.49-8.19-3.69-84.78-34.96-176.05-53.65-267.77-56.09l6.07-6.07c1.76-1.76,3.55-3.49,5.38-5.14,63.77-58.27,162.73-56.56,224.46,5.14,14.35,14.35,25.43,30.69,33.28,48.14,2.62,5.79,4.87,11.71,6.77,17.72Z"/><path class="ad" d="M982.57,702.49v7.82c-7.55,.83-15.09,1.76-22.62,2.78v-7.56c7.53-1.12,15.08-2.13,22.62-3.03Z"/><path class="ad" d="M1176.74,719.02c.05,9.85-13.25,15.13-20.47,18.66-21.67,9.26-44.58,14.65-67.48,19.32-16.85,3.33-33.84,5.97-50.91,7.9-18.37,2.08-36.83,3.35-55.31,3.77-7.53,.17-15.08,.2-22.62,.12-17.5-.24-34.99-1.22-52.42-2.98-16.77-1.66-33.47-4.03-50.03-7.11-7.02-1.29-15.41-2.91-24.69-4.92-6.46,6.8-10.3,14.8-10.17,24.23,.58,17.87,12,33.57,23.28,46.68,36.38,39.58,84.51,66.36,132.74,88.98-49.05-21.56-98.05-47.36-135.41-86.58-29.74-32.77-30.83-56.8-16.18-74.57-50.44-11.3-122.01-32.76-141.69-65.82-11.08-19.75,3.96-36.65,20.86-45.92,17.34-9.58,35.97-16.02,54.92-21.32l11.54,11.54c-32.1,8.51-63.57,19.91-74.55,34.57-11.47,16.41,19.53,33.72,31.86,40.34,13.18,6.89,27.26,12.49,41.54,17.46,21.93,7.39,44.36,13.55,67.09,18.49,8.16-5.94,18.29-10.98,29.63-15.31l4.59,4.6c-9.81,3.37-19.09,7.39-26.92,12.25,15.58,3.21,31.32,5.85,47.1,7.92,19.07,2.5,38.24,4.2,57.36,5.08,3.18,.1,6.36,.19,9.54,.24,7.53,.14,15.08,.15,22.62,.02,22.81-.36,45.67-1.91,68.34-4.79,27.07-3.43,53.89-8.76,80.06-16.21,11.91-3.89,24.7-7.39,34.5-15.14,.34-.32,.66-.66,.86-.93-.2-.17-.47-.41-.81-.63-10.93-6.07-24.2-7.33-36.56-9.31-10.88-1.4-21.86-2.34-32.89-2.94l8.85-8.85c16.26,.96,32.45,2.84,48.48,6.12,8.05,2.2,22.23,4.91,23.35,15.02Z"/><path class="ad" d="M1118.48,555.98c-.19,5.08-.66,10.1-1.39,15.02h-.02c-91.04,16.01-183.11,26.95-273.68,44.38-.41,.08-.81,.17-1.24,.25-2.45-4.31-4.67-8.78-6.63-13.37,93.75-18.63,188.91-29.73,282.95-46.29Z"/><path class="ad" d="M861.08,493.83c30.71,.95,61.44,1.44,92.16,1.68-39.29,.64-78.58,.91-117.86,.22,.39-.91,.8-1.83,1.18-2.72,8.17,.3,16.34,.58,24.52,.83Z"/><path class="ad" d="M1318.07,516.42c-20.71,11.64-43.45,18.93-65.95,25.48l-.36,.1c3.11-5.63,5.87-11.44,8.26-17.34,10.57-3.23,20.98-6.82,31.06-10.95,13.15-5.57,26.94-12.11,36.85-22.01,10.22-10.07,9.81-21.22,1.35-32.49-8.53-11.3-20.83-20.2-33.03-27.77-10.19-6.28-20.93-11.83-31.94-16.89-2.71-1.27-5.45-2.49-8.19-3.69-84.78-34.96-176.05-53.65-267.77-56.09h-.02c-10.79-.29-21.59-.36-32.38-.19-80.45,1.18-160.74,14.87-236.79,41.01-13.64,4.94-27.41,10.1-40.69,16.19-14.3,6.55-28.05,14.16-40.49,23.74-5.79,4.94-14.18,12.03-12.93,20.08,1.27,4.77,5.53,7.5,9.85,10.12,11.2,5.94,23.96,9.19,36.55,11.84,.2,2.01,.44,4.03,.73,6.04-13.86-2.62-27.58-5.7-40.39-12.22-41-23.35,20.51-55.63,41.64-65.85,2.89-1.37,5.8-2.72,8.73-4.04,39.42-17.77,81.15-30.02,123.23-39.61,45.84-10.56,92.58-16.6,139.49-18.29,18.31-.68,36.63-.69,54.94-.05,58.44,2.03,116.71,10.66,173.36,25.46,28.53,7.58,57.04,16.31,84.38,27.82,15.75,6.62,31.12,14.16,45.85,22.93,43.45,25.75,71.03,64.67,14.67,96.65Z"/></g><g class="ba"><use xlink:href="#ac"/></g></g><g class="ah"><g><path class="at" d="M835.38,495.73c-6.94,16.31-10.78,34.26-10.78,53.09s3.89,37.04,10.93,53.45c1.96,4.59,4.18,9.05,6.63,13.37,23.25,41.05,67.27,68.78,117.78,68.91v72.1c-3.18-.05-6.36-.14-9.54-.24-19.12-.88-38.29-2.57-57.36-5.08l-20.19-20.17-4.59-4.6-95.56-95.55-11.54-11.54-42.91-42.91c-26.12-26.12-41.5-58.95-46.09-92.94-.29-2.01-.52-4.03-.73-6.04-2.15-22.06,.19-44.5,7.02-65.78,13.28-6.09,27.05-11.25,40.69-16.19,76.05-26.14,156.34-39.83,236.79-41.01l3.99,3.98v54.53c-54.9,.15-102.13,32.89-123.38,79.89-.39,.9-.8,1.81-1.18,2.72Z"/><path class="ak" d="M955.95,354.6c-80.45,1.18-160.74,14.87-236.79,41.01-13.64,4.94-27.41,10.1-40.69,16.19,1.12-3.47,2.33-6.89,3.69-10.29,7.94-19.95,19.97-38.64,36.11-54.79,31.72-31.72,73.33-47.61,114.92-47.61s80.4,14.84,111.69,44.5c1.08,1.02,2.15,2.06,3.21,3.11l7.87,7.87Z"/><path class="ax" d="M959.94,756.65v61.59l-66.9-66.9c19.07,2.5,38.24,4.2,57.36,5.08,3.18,.1,6.36,.19,9.54,.24Z"/><path class="av" d="M1271.86,463.63c0,20.76-3.94,41.5-11.84,61.03-2.39,5.9-5.14,11.71-8.26,17.34-7.22,13.11-16.38,25.43-27.49,36.55l-11.86,11.84-107.49,107.47-54.01,54.01c-22.67,2.88-45.53,4.43-68.34,4.79v-70.18h.3c68.07,0,124.44-50.13,134.21-115.48h.02c.73-4.92,1.2-9.95,1.39-15.02,.07-1.73,.1-3.49,.1-5.23,0-74.95-60.76-135.71-135.71-135.71h-.3v-54.48l5.77-5.77h.02c91.72,2.44,182.99,21.13,267.77,56.09,2.74,1.2,5.48,2.42,8.19,3.69,5.04,15.94,7.55,32.5,7.55,49.07Z"/><path class="af" d="M1050.9,751.88l-68.34,68.34v-63.55c22.81-.36,45.67-1.91,68.34-4.79Z"/><path class="al" d="M1264.31,414.56c-2.71-1.27-5.45-2.49-8.19-3.69-84.78-34.96-176.05-53.65-267.77-56.09l6.07-6.07c1.76-1.76,3.55-3.49,5.38-5.14,63.77-58.27,162.73-56.56,224.46,5.14,14.35,14.35,25.43,30.69,33.28,48.14,2.62,5.79,4.87,11.71,6.77,17.72Z"/><path class="ad" d="M982.57,702.49v7.82c-7.55,.83-15.09,1.76-22.62,2.78v-7.56c7.53-1.12,15.08-2.13,22.62-3.03Z"/><path class="ad" d="M1176.74,719.02c.05,9.85-13.25,15.13-20.47,18.66-21.67,9.26-44.58,14.65-67.48,19.32-16.85,3.33-33.84,5.97-50.91,7.9-18.37,2.08-36.83,3.35-55.31,3.77-7.53,.17-15.08,.2-22.62,.12-17.5-.24-34.99-1.22-52.42-2.98-16.77-1.66-33.47-4.03-50.03-7.11-7.02-1.29-15.41-2.91-24.69-4.92-6.46,6.8-10.3,14.8-10.17,24.23,.58,17.87,12,33.57,23.28,46.68,36.38,39.58,84.51,66.36,132.74,88.98-49.05-21.56-98.05-47.36-135.41-86.58-29.74-32.77-30.83-56.8-16.18-74.57-50.44-11.3-122.01-32.76-141.69-65.82-11.08-19.75,3.96-36.65,20.86-45.92,17.34-9.58,35.97-16.02,54.92-21.32l11.54,11.54c-32.1,8.51-63.57,19.91-74.55,34.57-11.47,16.41,19.53,33.72,31.86,40.34,13.18,6.89,27.26,12.49,41.54,17.46,21.93,7.39,44.36,13.55,67.09,18.49,8.16-5.94,18.29-10.98,29.63-15.31l4.59,4.6c-9.81,3.37-19.09,7.39-26.92,12.25,15.58,3.21,31.32,5.85,47.1,7.92,19.07,2.5,38.24,4.2,57.36,5.08,3.18,.1,6.36,.19,9.54,.24,7.53,.14,15.08,.15,22.62,.02,22.81-.36,45.67-1.91,68.34-4.79,27.07-3.43,53.89-8.76,80.06-16.21,11.91-3.89,24.7-7.39,34.5-15.14,.34-.32,.66-.66,.86-.93-.2-.17-.47-.41-.81-.63-10.93-6.07-24.2-7.33-36.56-9.31-10.88-1.4-21.86-2.34-32.89-2.94l8.85-8.85c16.26,.96,32.45,2.84,48.48,6.12,8.05,2.2,22.23,4.91,23.35,15.02Z"/><path class="ad" d="M1118.48,555.98c-.19,5.08-.66,10.1-1.39,15.02h-.02c-91.04,16.01-183.11,26.95-273.68,44.38-.41,.08-.81,.17-1.24,.25-2.45-4.31-4.67-8.78-6.63-13.37,93.75-18.63,188.91-29.73,282.95-46.29Z"/><path class="ad" d="M861.08,493.83c30.71,.95,61.44,1.44,92.16,1.68-39.29,.64-78.58,.91-117.86,.22,.39-.91,.8-1.83,1.18-2.72,8.17,.3,16.34,.58,24.52,.83Z"/><path class="ad" d="M1318.07,516.42c-20.71,11.64-43.45,18.93-65.95,25.48l-.36,.1c3.11-5.63,5.87-11.44,8.26-17.34,10.57-3.23,20.98-6.82,31.06-10.95,13.15-5.57,26.94-12.11,36.85-22.01,10.22-10.07,9.81-21.22,1.35-32.49-8.53-11.3-20.83-20.2-33.03-27.77-10.19-6.28-20.93-11.83-31.94-16.89-2.71-1.27-5.45-2.49-8.19-3.69-84.78-34.96-176.05-53.65-267.77-56.09h-.02c-10.79-.29-21.59-.36-32.38-.19-80.45,1.18-160.74,14.87-236.79,41.01-13.64,4.94-27.41,10.1-40.69,16.19-14.3,6.55-28.05,14.16-40.49,23.74-5.79,4.94-14.18,12.03-12.93,20.08,1.27,4.77,5.53,7.5,9.85,10.12,11.2,5.94,23.96,9.19,36.55,11.84,.2,2.01,.44,4.03,.73,6.04-13.86-2.62-27.58-5.7-40.39-12.22-41-23.35,20.51-55.63,41.64-65.85,2.89-1.37,5.8-2.72,8.73-4.04,39.42-17.77,81.15-30.02,123.23-39.61,45.84-10.56,92.58-16.6,139.49-18.29,18.31-.68,36.63-.69,54.94-.05,58.44,2.03,116.71,10.66,173.36,25.46,28.53,7.58,57.04,16.31,84.38,27.82,15.75,6.62,31.12,14.16,45.85,22.93,43.45,25.75,71.03,64.67,14.67,96.65Z"/></g><g class="am"><use xlink:href="#ac"/></g></g><circle class="bc" cx="828.97" cy="425.06" r="258.73"/></g></g></g></svg>