<?xml version="1.0" encoding="UTF-8"?><svg id="a" xmlns="http://www.w3.org/2000/svg" xmlns:xlink="http://www.w3.org/1999/xlink" viewBox="0 0 89.84 54.14"><image transform="translate(-125.49 -115.84) scale(.33)" xlink:href="../../../../../../../ClipStudioPaint/pngs/ButtonBigger.png"/><g><path d="M17.06,19.55c.07,0,.18-.02,.29-.12,.53-.58,1.23-.96,1.82-1.45,1.11-.9,2.29-1.78,3.49-2.43,1.4-.77,2.85-1.53,4.28-1.65,.74-.06,1.47-.03,2.11,.1,.59,.12,.79,.46,1.21,.66,.07,.05,.07,.16,.14,.22,.34,.35,.54,.95,.83,1.43,.3,.5,.56,1.05,.49,1.71-.05,.16-.08,.25-.13,.41-.31,.9-.34,1.48-.83,1.95-.52,.5-.88,1.06-1.28,1.59-.08,.1-.14,.22-.26,.31-.86,.85-1.45,1.82-2.09,2.77-.12,.17-.18,.25-.29,.42-.45,.63-.33,.86-.27,.94,.11,.17,.16,.26,.27,.43,.73,.63,1.03,1.58,1.67,2.22,.27,.27,.42,.79,.63,1.07,.36,.49,.73,.93,1.19,1.31,.1,.08,.17,.17,.19,.27,.04,.14,.05,.31-.16,.37-.48,.17-.99,1.01-1.81,.65-.22-.11-.61-.66-.74-.63-.16,.04,.61,1.01,.52,1.09-.38,.34-.73,.39-1.05,.11-.24-.22-.48-.43-.66-.7-.39-.57-1.06-1.12-1.55-1.63-.37-.39-.55-.58-.92-.97-.14-.15-.31-.14-.51,.14-.21,.29-.4,.28-.45,.06-.04-.17-.07-.43,.07-.56,.31-.37,.09-.45-.05-.58-.85-.85-1.86-1.61-2.75-2.47-.87-.84-1.7-1.73-2.51-2.6-.46-.49-.81-1.09-1.2-1.65-.18-.25-.44-.49-.68-.64-.12-.08-.17-.18-.28-.22-.1-.04-.74,.51-.84,.47-.05-.19,.49-.7,.41-.93-.05-.12,.22-.56,.44-.69,.41-.21,.81-.73,1.27-.8Zm2.52-.95c.28,.2,.66,.32,.84,.63,.16,.29,.42,.54,.63,.82,.61,.84,1.25,1.76,2.04,2.48,.52,.48,.93,1.14,1.48,1.57,.29,.23,.58,.52,.8,.82,.08,.1,.18,.24,.39,.28,.08-.15,.11-.24,.14-.32,.12-.61,.71-1.17,.97-1.83,.15-.34,.46-.71,.5-1.03,.09-.91,.14-1.79-.04-2.61-.05-.17,.02-.3,.23-.44,.17,.31,.23,.77,.21,1.47,.01,.11,.05,.09,.07,.13,.35-.2,.46-2.15-.23-2.64-.01-.02-.06-.02-.14,.02-.09,.1-.03,.22-.13,.39-.29-.01-.29-.18-.33-.34-.03-.33-.09-.42-.18-.68-.06-.19-.27-.46-.43-.6-.11-.1-.25-.27-.48-.31-.56-.18-1.06-.42-1.81-.41-.33,0-.69,.03-1.16,.24-1.21,.53-2.24,1.46-3.33,2.23-.04,.03-.06,.08-.07,.15Z"/><path d="M36.32,9.42c.19-.02,.18,.14,.19,.21,.07,.32,.13,.66,.13,.98,0,.98,.44,1.99,.69,2.95,.1,.41,.08,.86,.33,1.22,.08,.16,.08,.34,.38,.41,.3-1.05-.57-1.88-.51-2.86,.07-.95-.46-1.86-.41-2.93,.69,.14,.6,.51,.63,.77,.07,.6,.32,1.29,.44,1.92,.21,1.12,.48,2.27,.73,3.38,.24,1.09,.38,2.27,.92,3.27,.43,.78,.81,1.6,1.06,2.42,.22,.73,.14,1.54,.18,2.3,0,.18,0,.34,.03,.51,.03,.26,.04,.56-.09,.84-.13,.28-.07,.55,.13,.8,.09,0,.14-.03,.16-.11,.1-.25,.1-.28,.37-.12,.1,.06,.19,.04,.27,.03,.38-.06,.79-.11,1.18-.22,.53-.15,1.12-.25,1.68-.31,.28-.03,.62-.06,.89,.08,.15,.07,.32,.04,.5,.04,.15,0,.29-.03,.44,.05,.15,.08,.26,.17,.09,.3-.14,.1-.2,.2-.09,.35,.09,.08,.03,.18-.06,.2-.4,.15-.7,.38-1.17,.36-.66-.03-1.34,.22-2.02,.27-.74,.05-1.53,.26-2.24,.47-.68,.2-1.62,.44-2.28,.76-.45,.22-.87,.11-1.27-.28,.2-.28,.76-.23,.78-.68-.06-.11-.22-.12-.33-.19-.27-.18-.55-.33-.67-.63-.58-1.38-.97-2.88-1.57-4.24-.51-1.15-.91-2.38-1.36-3.54-.48-1.22-1.02-2.46-1.5-3.7-.39-.99-.62-2.06-1.15-3-.13-.22,.12-.4,.42-.49,.69-.21,1.11-.65,1.77-.87,.13-.04,.2-.14,.27-.24,.13-.38,.58-.55,1.12-.72,.31,.08,.46,.3,.97,.23Zm2.39,17.12c0,.05,.02,.07,.08,.06,.12,0,.13-.06,.13-.17-.04-.04-.03-.12-.15-.09-.11,.03-.05,.13-.06,.2Z"/><path d="M56.66,9.24c.27,.02,.53,.77,.57,1.01,.15-.61,.45-1.01,.83,.08,.2,.52,.48,1.08,.55,1.59,.08,.58,.3,1.22,.25,1.78-.04,.43,.08,.34,.28,.8,.37,.78,.09,1.47,.14,2.2,.08,1.22,.3,2.47,.49,3.7,.14,.92-.02,1.81-.15,2.72-.02,.24-.19,.44-.22,.7-.06,.99-.08,2-.05,3.02,.02,.6-.03,1.25-.37,1.81-.16,.26-.33,.54-.78,.38-.01,.02-.06,.25-.35,.15-.08-.17-.24-.28-.27-.56-.01-.12-.21-.15-.19-.27,0-.3-.34-.52-.48-.33-.27,.38-.69-.09-1.02-.11-.23-.02-.35-.12-.33-.33-.03-.89-.09-1.76-.09-2.6,0-.71-.26-1.45-.23-2.17,0-.26-.21-.4-.49-.47-1.24-.29-2.23-.54-3.55-.6-.3-.02-.84-.17-1.06-.03-.2,.13-.23,.42-.33,.63-.19,.42-.4,.88-.51,1.35-.16,.69-.24,1.03-.38,1.72-.04,.2-.1,.43-.16,.62-.09,.28-.22,.36-.64,.24-.11-.03-.29-.59-.41-.2-.07,.22-.27-.41-.23-.66,.18-1.13,.42-2.21,.87-3.28,.05-.15,.07-.22,.12-.37,.09-.35,.09-.33-.34-.45-.23-.06-.49-.09-.62-.3,.14-.22,.44-.16,.67-.18,.78-.12,.67,0,.81-.56,.22-.84,.78-1.89,1-2.73,.33-1.24,.74-2.19,1.37-3.36,.47-.88,.63-1.25,.98-2.12,.29-.71,.64-1.44,.93-2.14,.07-.17,.12-.37,.04-.56-.07-.17-.07-.45,.4-.48,.47-.03,.99-.22,1.5,.03,.46,.23,1,.29,1.45,.33Zm-3,3.73c.05,.42-.31,1.03-.62,1.48-.38,.56-.39,1.27-.81,1.84-.4,.56-.66,1.18-.87,1.84-.25,.83-.58,1.66-.88,2.49,1.12,.08,2.33,.26,3.41,.44,.2,.04,.41,.04,.62,.04,.52,.05,.57,.01,.48-.37-.16-.64-.12-1.28-.23-1.93-.1-.54,0-1.1-.16-1.67-.19-.68-.27-1.4-.25-2.06,.02-.74-.07-1.51-.4-2.34-.23,.06-.31,.16-.3,.23Zm5.13,5.44c.13-.14,.09-1.12-.07-1.25-.36,.09,.05,1.08,.07,1.25Z"/><path d="M78.09,22.16c-.83,.14-1.52,.45-2.38,.55-.09,.02-.15,.03-.21,.08-.71,.73-2.03,.76-3.01,1.16-.78,.32-1.49,.69-2.33,.91-.66,.17-.76,.35-1.14,.8-.4,.47-.67,1.1-1.07,1.57-.95,1.12-1.91,2.38-2.9,3.56l-.21,.26c-.28,.45-.61,.9-1.19,1.06-.18-.4-.2-.42-.61-.41-.37,.01-.4,.01-.56-.32-.05-.13-.12-.29-.17-.42-.05-.16-.05-.34-.29-.41-.02-.02-.05-.03-.06-.07-.09-.12,.05-.36-.22-.42-.19-.03-.25,.17-.41,.22-.04,0-.08,.01-.14,0-.07-.16,0-.33,.03-.49,.48-1.36,1.31-2.53,2.13-3.64,.49-.66,.9-1.39,1.17-2.15,.2-.57,.46-1.11,.18-1.86-.2-.49-.04-.95,.02-1.38,.15-1.59,.4-3.21,.51-4.77,.06-.86,.17-1.75-.15-2.73-.1-.35,.25-.44,.53-.59,.06-.03,.2,.01,.28,.07,1.56,.76,2.56,1.81,2.98,2.93,.17,.45,.29,.87,.52,1.44,.25-.23,.28-.45,.2-.76-.04-.2-.04-.2,.38-.27,.24,.33,.41,.65,.3,.91-.09,.21-.04,.45,.07,.74,.14,.36,.08,.69,0,.97-.24,1-.36,2.08-.62,3.08-.09,.41-.1,.99-.15,1.65,2.46-1.17,5.42-2.3,8.62-2.4,.45,.75,.31,1.02-.13,1.12Zm-8.45-6.66c.03,.14-.05,.35-.26,.08-.15-.12-.19-.29-.17-.36,.02-.06,.1-.09,.23-.01,.16,.1,.26,.21,.2,.3Z"/></g></svg>